<?xml version="1.0" encoding="UTF-8"?>
<svg id="Layer_2" data-name="Layer 2" xmlns="http://www.w3.org/2000/svg" viewBox="0 0 510.97 512">
  <g id="Layer_1-2" data-name="Layer 1">
    <g id="Path">
      <path d="m342.06,110c-13.81,0-25,11.19-25,25v2.04c-20.07-17.57-44.11-27.04-69.56-27.04-33.11,0-63.83,16-86.52,45.05-21.26,27.23-32.98,63.08-32.98,100.95s11.71,73.72,32.98,100.95c22.69,29.05,53.42,45.05,86.52,45.05,26.5,0,51.48-10.26,72.03-29.26,3.86,10.97,12.07,20.12,23.27,25.35,15.55,7.25,33.9,5.29,47.41-4.91l13.13-7.94c26-15.71,48.17-35.66,65.92-59.3,18.04-24.03,30.59-50.66,37.3-79.16,1-4.13,10.47-45.85-1.86-92.6-14.72-55.82-63.75-96.1-67.78-99.34C380.93,8.98,333.29,0,269.95,0c-71.83,0-139.44,26.45-190.36,74.47C28.27,122.87,0,187.34,0,256s28.27,133.13,79.59,181.53c50.92,48.02,118.53,74.47,190.36,74.47,92,0,176.8-43.78,226.81-117.11,7.78-11.41,4.84-26.96-6.57-34.74-11.41-7.78-26.96-4.84-34.74,6.57-40.7,59.67-110.05,95.29-185.51,95.29-121.28,0-219.95-92.41-219.95-206S148.67,50,269.95,50c54.52,0,90.43,6.74,135.39,43.61.11.09.21.17.32.26,10.31,8.18,41.75,39.15,50.69,73.06,9.16,34.74,1.96,66.59,1.63,68.02-.03.13-.04.14-.07.31-10.2,43.4-39.51,82.46-80.42,107.19l-10.42,6.3v-213.74c0-13.81-11.19-25-25-25Zm-47.44,216.17c-13.01,16.66-29.74,25.83-47.12,25.83s-34.11-9.17-47.12-25.83c-14.43-18.48-22.38-43.4-22.38-70.17s7.95-51.69,22.38-70.17c13.01-16.66,29.74-25.83,47.12-25.83s34.11,9.17,47.12,25.83c14.43,18.48,22.38,43.4,22.38,70.17s-7.95,51.69-22.38,70.17Z"/>
    </g>
  </g>
</svg>