<?xml version="1.0" encoding="UTF-8"?>
<svg id="Layer_2" data-name="Layer 2" xmlns="http://www.w3.org/2000/svg" viewBox="0 0 512 512">
  <g id="Layer_1-2" data-name="Layer 1">
    <g id="Path">
      <g>
        <path d="m383.22,0h-254.43C57.66,0,0,57.66,0,128.78v254.43c0,71.12,57.66,128.78,128.78,128.78h254.43c71.12,0,128.78-57.66,128.78-128.78v-254.43C512,57.66,454.34,0,383.22,0Zm78.78,383.22c0,43.44-35.34,78.78-78.78,78.78h-254.43c-43.44,0-78.78-35.34-78.78-78.78v-254.43c0-43.44,35.34-78.78,78.78-78.78h254.43c43.44,0,78.78,35.34,78.78,78.78v254.43Z"/>
        <path d="m256,123c-73.45,0-133,59.55-133,133s59.55,133,133,133,133-59.55,133-133-59.55-133-133-133Zm0,216c-45.77,0-83-37.23-83-83s37.23-83,83-83,83,37.23,83,83-37.23,83-83,83Z"/>
        <circle cx="384" cy="128" r="25"/>
      </g>
    </g>
  </g>
</svg>