<?xml version="1.0" encoding="UTF-8"?>
<svg id="Layer_2" data-name="Layer 2" xmlns="http://www.w3.org/2000/svg" viewBox="0 0 512 512">
  <g id="Layer_1-2" data-name="Layer 1">
    <g id="Path">
      <g>
        <path d="m256,0h0C114.61,0,0,114.61,0,256v256h256c141.38,0,256-114.61,256-256h0C512,114.61,397.39,0,256,0Zm145.66,401.66c-38.91,38.91-90.64,60.34-145.66,60.34H50v-206c0-55.02,21.43-106.76,60.34-145.66s90.64-60.34,145.66-60.34,106.76,21.43,145.66,60.34,60.34,90.64,60.34,145.66-21.43,106.76-60.34,145.66Z"/>
        <path d="m313,272c-19.09,0-35.14,13.05-39.7,30.72-15.4-3.87-29.6-11.86-41.23-23.57-11.39-11.46-19.17-25.37-22.94-40.42,17.74-4.51,30.87-20.59,30.87-39.74,0-22.64-18.36-41-41-41s-39.78,17.16-40.94,38.77c-6.49,43.6,7.5,86.38,38.54,117.63,26.47,26.63,61.37,41.02,98.19,41.02,6.69,0,13.45-.5,20.23-1.46,21.7-1.06,38.97-18.99,38.97-40.95s-18.36-41-41-41Z"/>
      </g>
    </g>
  </g>
</svg>